<?xml version="1.0" encoding="UTF-8" standalone="no"?>
<!DOCTYPE svg PUBLIC "-//W3C//DTD SVG 1.1//EN" "http://www.w3.org/Graphics/SVG/1.1/DTD/svg11.dtd">
<!-- Generated by Microsoft Visio, SVG Export incoming-emails.svg Page-1 -->
<svg xmlns="http://www.w3.org/2000/svg" xmlns:xlink="http://www.w3.org/1999/xlink" xmlns:ev="http://www.w3.org/2001/xml-events"
		width="5.40058in" height="9.59383in" viewBox="0 0 388.841 690.756" xml:space="preserve" color-interpolation-filters="sRGB"
		class="st22">
	<style type="text/css">
	<![CDATA[
		.st1 {fill:#dde2cd}
		.st2 {stroke:none;stroke-linecap:round;stroke-linejoin:round;stroke-width:0.75}
		.st3 {stroke:#000000;stroke-linecap:round;stroke-linejoin:round;stroke-width:0.24}
		.st4 {fill:#ffffff;stroke:none;stroke-linecap:round;stroke-linejoin:round;stroke-width:0.24;visibility:hidden}
		.st5 {fill:#ffffff;stroke:#000000;stroke-linecap:round;stroke-linejoin:round;stroke-width:0.24}
		.st6 {fill:#ffc000;stroke:none;stroke-linecap:round;stroke-linejoin:round;stroke-width:6.375}
		.st7 {fill:#000000;font-family:Calibri;font-size:0.833336em}
		.st8 {fill:#ffc000;stroke:#000000;stroke-linecap:round;stroke-linejoin:round;stroke-width:0.75}
		.st9 {fill:#ffffff}
		.st10 {stroke:#000000;stroke-linecap:round;stroke-linejoin:round;stroke-width:0.75}
		.st11 {fill:#ffc000;stroke:none;stroke-linecap:butt;stroke-width:0.75}
		.st12 {fill:#7f7f7f;stroke:none;stroke-linecap:round;stroke-linejoin:round;stroke-width:6.375}
		.st13 {fill:none;stroke:none;stroke-linecap:round;stroke-linejoin:round;stroke-width:0.75}
		.st14 {fill:#000000;font-family:Calibri;font-size:1.00001em}
		.st15 {fill:#4d1e1a;font-family:Calibri;font-size:0.833336em}
		.st16 {fill:#92d050;stroke:none;stroke-linecap:butt;stroke-width:0.75}
		.st17 {fill:#92cddc;stroke:none;stroke-linecap:butt;stroke-width:0.75}
		.st18 {fill:#92d050;stroke:none;stroke-linecap:round;stroke-linejoin:round;stroke-width:6.375}
		.st19 {fill:#92cddc;stroke:none;stroke-linecap:round;stroke-linejoin:round;stroke-width:6.375}
		.st20 {fill:#92d050;stroke:#000000;stroke-linecap:round;stroke-linejoin:round;stroke-width:0.75}
		.st21 {fill:#92cddc;stroke:#000000;stroke-linecap:round;stroke-linejoin:round;stroke-width:0.75}
		.st22 {fill:none;fill-rule:evenodd;font-size:12px;overflow:visible;stroke-linecap:square;stroke-miterlimit:3}
	]]>
	</style>

	<g>
		<title>Page-1</title>
		<g id="group191-1" transform="translate(864.025,35.3605) rotate(90)">
			<title>1-D single</title>
			<g id="shape192-2">
				<title>Sheet.192</title>
				<path d="M0 681.63 L226.6 681.63 L226.6 690.76 L235.72 672.5 L226.6 654.25 L226.6 663.38 L0 663.38 L0 681.63 Z"
						class="st1"/>
				<path d="M0 681.63 L226.6 681.63 L226.6 690.76 L235.72 672.5 L226.6 654.25 L226.6 663.38 L0 663.38" class="st2"/>
			</g>
			<g id="shape193-5">
				<title>Sheet.193</title>
				<path d="M0 681.63 L226.6 681.63 L226.6 690.76 L235.72 672.5 L226.6 654.25 L226.6 663.38 L0 663.38 L0 681.63"
						class="st3"/>
			</g>
			<g id="shape194-8" transform="translate(-3.02249,-9.28136)">
				<title>Sheet.194</title>
				<rect x="0" y="672.811" width="1.33053" height="17.9445" class="st4"/>
			</g>
		</g>
		<g id="group156-10" transform="translate(0.375,-17.6)">
			<title>Box</title>
			<g id="shape157-11">
				<title>Sheet.157</title>
				<rect x="0" y="302.409" width="388.346" height="388.346" class="st5"/>
			</g>
		</g>
		<g id="group1-13" transform="translate(50.69,-178.891)">
			<title>Open Folder</title>
			<desc>Tenant1-Alias1</desc>
			<g id="shape2-14" transform="translate(0,-2.01905)">
				<title>Sheet.2</title>
				<path d="M13.36 666.52 C11.28 666.52 9.47 667.8 8.66 669.68 C8.66 669.68 0 690.89 0 690.76 L0 657.77 C0 656.29 1.21
							 655.07 2.69 655.07 L15.31 655.07 C15.84 655.07 16.31 655.28 16.78 655.55 L24.17 660.46 L44.31 660.46
							 C45.78 660.46 46.99 661.67 46.99 663.15 L46.99 666.52 L13.36 666.52 Z" class="st6"/>
			</g>
			<g id="shape3-16" transform="translate(2.01393,0)">
				<title>Sheet.3</title>
				<path d="M50.35 669.89 C50.35 670.29 50.28 670.69 50.08 671.1 L40.95 690.76 L0 690.76 L9.06 668.67 C9.47 667.8 10.34
							 667.19 11.35 667.19 L47.93 667.19 C49.34 667.33 50.35 668.47 50.35 669.89 Z" class="st6"/>
			</g>
			<g id="shape1-18">
				<text x="-4.2" y="703.76" class="st7">Tenant1-Alias1</text>			</g>
		</g>
		<g id="group15-20" transform="translate(171.874,-601.537)">
			<title>Mail</title>
			<g id="shape16-21">
				<title>Sheet.16</title>
				<path d="M0 690.76 L37.7 690.76 L37.7 667.19 L31.41 661.6 L5.8 661.6 L0 667.19 L0 690.76 Z" class="st8"/>
			</g>
			<g id="shape17-23" transform="translate(5.80012,-10.8873)">
				<title>Sheet.17</title>
				<path d="M26.1 670.67 L19.61 663.94 L0 663.94 L0 683.97 L6.56 690.57 A9.36896 9.36896 0 0 1 9.71 689.86 L16.29 689.91
							 A8.58681 8.58681 0 0 1 19.5 690.76 L26.1 683.97 L26.1 670.67 Z" class="st8"/>
			</g>
			<g id="shape18-25" transform="translate(10.6516,-13.6602)">
				<title>Sheet.18</title>
				<path d="M14.57 666.95 L20.85 673.47 L14.57 673.47 L14.57 666.95 ZM0 673.88 L6.47 673.88 L6.47 673.14 L0 673.14 L0
							 673.88 ZM0 678.1 L6.47 678.1 L6.47 677.38 L0 677.38 L0 678.1 ZM0 682.32 L16.39 682.32 L16.39 681.6 L0
							 681.6 L0 682.32 ZM0 686.54 L16.39 686.54 L16.39 685.82 L0 685.82 L0 686.54 ZM0 690.76 L16.39 690.76
							 L16.39 690.04 L0 690.04 L0 690.76 Z" class="st9"/>
			</g>
			<g id="shape19-28">
				<title>Sheet.19</title>
				<path d="M12.34 679.69 L0 667.19" class="st10"/>
				<path d="M25.36 679.69 L37.7 667.19" class="st10"/>
				<path d="M37.7 690.76 L27.6 681.43 A9.28019 9.4252 -180 0 0 21.35 678.97 L15.89 678.97 A9.28019 9.4252 -180 0 0 9.49
							 681.57 L0 690.76" class="st10"/>
			</g>
		</g>
		<g id="shape97-33" transform="translate(40.69,-306.734)">
			<title>Contact</title>
			<path d="M26.71 662.6 L25.45 663.27 L22.15 669.49 L18.86 663.27 L17.6 662.6 A12.1478 11.6619 -180 0 0 10.63 673.91 A9.20479
						 8.8366 -180 0 0 22.15 680.55 A9.20479 8.8366 -180 0 0 33.68 673.91 A12.151 11.665 -180 0 0 26.71 662.6 ZM29.07
						 656.22 A6.9137 6.63715 -180 1 0 15.24 656.22 A6.9137 6.63715 -180 1 0 29.07 656.22 ZM38.27 672.39 L57.4
						 672.39 L57.4 670.35 L38.27 670.35 L38.27 672.39 ZM38.27 664.22 L57.4 664.22 L57.4 662.18 L38.27 662.18 L38.27
						 664.22 ZM38.27 656.06 L57.4 656.06 L57.4 654.02 L38.27 654.02 L38.27 656.06 ZM0 639.73 L0 690.76 L68.03
						 690.76 L68.03 639.73 L0 639.73 ZM63.78 686.51 L4.25 686.51 L4.25 643.74 L63.78 643.74 L63.78 686.51 Z"
					class="st11"/>
		</g>
		<g id="group98-35" transform="translate(53.4459,-60.9701)">
			<title>Folder.98</title>
			<desc>Tenant1-Alias3</desc>
			<g id="shape99-36">
				<title>Sheet.99</title>
				<path d="M46.92 690.76 C48.4 690.76 49.61 689.54 49.61 688.06 L49.61 661.13 C49.61 659.65 48.4 658.44 46.92 658.44
							 L24.13 658.44 L16.76 653.53 C16.36 653.19 15.82 653.06 15.28 653.06 L2.68 653.06 C1.21 653.06 0 654.27
							 0 655.75 L0 688.06 C0 689.54 1.21 690.76 2.68 690.76 L46.92 690.76 Z" class="st12"/>
			</g>
			<g id="shape98-38">
				<text x="-5.58" y="703.76" class="st7">Tenant1-Alias3</text>			</g>
		</g>
		<g id="group100-40" transform="translate(53.4459,-119.931)">
			<title>Folder.100</title>
			<desc>Tenant1-Alias2</desc>
			<g id="shape101-41">
				<title>Sheet.101</title>
				<path d="M46.92 690.76 C48.4 690.76 49.61 689.54 49.61 688.06 L49.61 661.13 C49.61 659.65 48.4 658.44 46.92 658.44
							 L24.13 658.44 L16.76 653.53 C16.36 653.19 15.82 653.06 15.28 653.06 L2.68 653.06 C1.21 653.06 0 654.27
							 0 655.75 L0 688.06 C0 689.54 1.21 690.76 2.68 690.76 L46.92 690.76 Z" class="st12"/>
			</g>
			<g id="shape100-43">
				<text x="-5.58" y="703.76" class="st7">Tenant1-Alias2</text>			</g>
		</g>
		<g id="shape103-45" transform="translate(47.0679,-284.907)">
			<title>Sheet.103</title>
			<desc>Tenant1</desc>
			<rect x="0" y="670.756" width="56.6929" height="20" class="st13"/>
			<text x="8.21" y="684.36" class="st14">Tenant1</text>		</g>
		<g id="shape120-48" transform="translate(94.3468,-584.529)">
			<title>Sheet.120</title>
			<desc>To: tenan1-alias1@app.company.com</desc>
			<rect x="0" y="679.417" width="192.756" height="11.3386" class="st13"/>
			<text x="19.34" y="688.69" class="st15">To: tenan1-alias1@app.company.com</text>		</g>
		<g id="group123-51" transform="translate(50.69,-237.852)">
			<title>Folder.123</title>
			<desc>Incoming</desc>
			<g id="shape124-52">
				<title>Sheet.124</title>
				<path d="M46.92 690.76 C48.4 690.76 49.61 689.54 49.61 688.06 L49.61 661.13 C49.61 659.65 48.4 658.44 46.92 658.44
							 L24.13 658.44 L16.76 653.53 C16.36 653.19 15.82 653.06 15.28 653.06 L2.68 653.06 C1.21 653.06 0 654.27
							 0 655.75 L0 688.06 C0 689.54 1.21 690.76 2.68 690.76 L46.92 690.76 Z" class="st12"/>
			</g>
			<g id="shape123-54">
				<text x="6.04" y="703.76" class="st7">Incoming</text>			</g>
		</g>
		<g id="shape128-56" transform="translate(159.745,-305.883)">
			<title>Contact.128</title>
			<path d="M26.71 662.6 L25.45 663.27 L22.15 669.49 L18.86 663.27 L17.6 662.6 A12.1478 11.6619 -180 0 0 10.63 673.91 A9.20479
						 8.8366 -180 0 0 22.15 680.55 A9.20479 8.8366 -180 0 0 33.68 673.91 A12.151 11.665 -180 0 0 26.71 662.6 ZM29.07
						 656.22 A6.9137 6.63715 -180 1 0 15.24 656.22 A6.9137 6.63715 -180 1 0 29.07 656.22 ZM38.27 672.39 L57.4
						 672.39 L57.4 670.35 L38.27 670.35 L38.27 672.39 ZM38.27 664.22 L57.4 664.22 L57.4 662.18 L38.27 662.18 L38.27
						 664.22 ZM38.27 656.06 L57.4 656.06 L57.4 654.02 L38.27 654.02 L38.27 656.06 ZM0 639.73 L0 690.76 L68.03
						 690.76 L68.03 639.73 L0 639.73 ZM63.78 686.51 L4.25 686.51 L4.25 643.74 L63.78 643.74 L63.78 686.51 Z"
					class="st16"/>
		</g>
		<g id="group129-58" transform="translate(172.501,-60.1197)">
			<title>Folder.129</title>
			<desc>Tenant2-Alias3</desc>
			<g id="shape130-59">
				<title>Sheet.130</title>
				<path d="M46.92 690.76 C48.4 690.76 49.61 689.54 49.61 688.06 L49.61 661.13 C49.61 659.65 48.4 658.44 46.92 658.44
							 L24.13 658.44 L16.76 653.53 C16.36 653.19 15.82 653.06 15.28 653.06 L2.68 653.06 C1.21 653.06 0 654.27
							 0 655.75 L0 688.06 C0 689.54 1.21 690.76 2.68 690.76 L46.92 690.76 Z" class="st12"/>
			</g>
			<g id="shape129-61">
				<text x="-5.58" y="703.76" class="st7">Tenant2-Alias3</text>			</g>
		</g>
		<g id="shape133-63" transform="translate(166.123,-284.057)">
			<title>Sheet.133</title>
			<desc>Tenant2</desc>
			<rect x="0" y="670.756" width="56.6929" height="20" class="st13"/>
			<text x="8.21" y="684.36" class="st14">Tenant2</text>		</g>
		<g id="group134-66" transform="translate(169.745,-237.002)">
			<title>Folder.134</title>
			<desc>Incoming</desc>
			<g id="shape135-67">
				<title>Sheet.135</title>
				<path d="M46.92 690.76 C48.4 690.76 49.61 689.54 49.61 688.06 L49.61 661.13 C49.61 659.65 48.4 658.44 46.92 658.44
							 L24.13 658.44 L16.76 653.53 C16.36 653.19 15.82 653.06 15.28 653.06 L2.68 653.06 C1.21 653.06 0 654.27
							 0 655.75 L0 688.06 C0 689.54 1.21 690.76 2.68 690.76 L46.92 690.76 Z" class="st12"/>
			</g>
			<g id="shape134-69">
				<text x="6.04" y="703.76" class="st7">Incoming</text>			</g>
		</g>
		<g id="group136-71" transform="translate(172.501,-178.891)">
			<title>Folder.136</title>
			<desc>Tenant2-Alias1</desc>
			<g id="shape137-72">
				<title>Sheet.137</title>
				<path d="M46.92 690.76 C48.4 690.76 49.61 689.54 49.61 688.06 L49.61 661.13 C49.61 659.65 48.4 658.44 46.92 658.44
							 L24.13 658.44 L16.76 653.53 C16.36 653.19 15.82 653.06 15.28 653.06 L2.68 653.06 C1.21 653.06 0 654.27
							 0 655.75 L0 688.06 C0 689.54 1.21 690.76 2.68 690.76 L46.92 690.76 Z" class="st12"/>
			</g>
			<g id="shape136-74">
				<text x="-5.58" y="703.76" class="st7">Tenant2-Alias1</text>			</g>
		</g>
		<g id="shape138-76" transform="translate(275.966,-306.734)">
			<title>Contact.138</title>
			<path d="M26.71 662.6 L25.45 663.27 L22.15 669.49 L18.86 663.27 L17.6 662.6 A12.1478 11.6619 -180 0 0 10.63 673.91 A9.20479
						 8.8366 -180 0 0 22.15 680.55 A9.20479 8.8366 -180 0 0 33.68 673.91 A12.151 11.665 -180 0 0 26.71 662.6 ZM29.07
						 656.22 A6.9137 6.63715 -180 1 0 15.24 656.22 A6.9137 6.63715 -180 1 0 29.07 656.22 ZM38.27 672.39 L57.4
						 672.39 L57.4 670.35 L38.27 670.35 L38.27 672.39 ZM38.27 664.22 L57.4 664.22 L57.4 662.18 L38.27 662.18 L38.27
						 664.22 ZM38.27 656.06 L57.4 656.06 L57.4 654.02 L38.27 654.02 L38.27 656.06 ZM0 639.73 L0 690.76 L68.03
						 690.76 L68.03 639.73 L0 639.73 ZM63.78 686.51 L4.25 686.51 L4.25 643.74 L63.78 643.74 L63.78 686.51 Z"
					class="st17"/>
		</g>
		<g id="group139-78" transform="translate(288.721,-60.9701)">
			<title>Folder.139</title>
			<desc>Tenant3-Alias3</desc>
			<g id="shape140-79">
				<title>Sheet.140</title>
				<path d="M46.92 690.76 C48.4 690.76 49.61 689.54 49.61 688.06 L49.61 661.13 C49.61 659.65 48.4 658.44 46.92 658.44
							 L24.13 658.44 L16.76 653.53 C16.36 653.19 15.82 653.06 15.28 653.06 L2.68 653.06 C1.21 653.06 0 654.27
							 0 655.75 L0 688.06 C0 689.54 1.21 690.76 2.68 690.76 L46.92 690.76 Z" class="st12"/>
			</g>
			<g id="shape139-81">
				<text x="-5.58" y="703.76" class="st7">Tenant3-Alias3</text>			</g>
		</g>
		<g id="group141-83" transform="translate(288.721,-119.931)">
			<title>Folder.141</title>
			<desc>Tenant3-Alias2</desc>
			<g id="shape142-84">
				<title>Sheet.142</title>
				<path d="M46.92 690.76 C48.4 690.76 49.61 689.54 49.61 688.06 L49.61 661.13 C49.61 659.65 48.4 658.44 46.92 658.44
							 L24.13 658.44 L16.76 653.53 C16.36 653.19 15.82 653.06 15.28 653.06 L2.68 653.06 C1.21 653.06 0 654.27
							 0 655.75 L0 688.06 C0 689.54 1.21 690.76 2.68 690.76 L46.92 690.76 Z" class="st12"/>
			</g>
			<g id="shape141-86">
				<text x="-5.58" y="703.76" class="st7">Tenant3-Alias2</text>			</g>
		</g>
		<g id="shape143-88" transform="translate(282.344,-284.907)">
			<title>Sheet.143</title>
			<desc>Tenant3</desc>
			<rect x="0" y="670.756" width="56.6929" height="20" class="st13"/>
			<text x="8.21" y="684.36" class="st14">Tenant3</text>		</g>
		<g id="group146-91" transform="translate(288.721,-179.742)">
			<title>Folder.146</title>
			<desc>Tenant3-Alias1</desc>
			<g id="shape147-92">
				<title>Sheet.147</title>
				<path d="M46.92 690.76 C48.4 690.76 49.61 689.54 49.61 688.06 L49.61 661.13 C49.61 659.65 48.4 658.44 46.92 658.44
							 L24.13 658.44 L16.76 653.53 C16.36 653.19 15.82 653.06 15.28 653.06 L2.68 653.06 C1.21 653.06 0 654.27
							 0 655.75 L0 688.06 C0 689.54 1.21 690.76 2.68 690.76 L46.92 690.76 Z" class="st12"/>
			</g>
			<g id="shape146-94">
				<text x="-5.58" y="703.76" class="st7">Tenant3-Alias1</text>			</g>
		</g>
		<g id="group149-96" transform="translate(172.501,-119.08)">
			<title>Open Folder.149</title>
			<desc>Tenant2-Alias2</desc>
			<g id="shape150-97" transform="translate(0,-2.01905)">
				<title>Sheet.150</title>
				<path d="M13.36 666.52 C11.28 666.52 9.47 667.8 8.66 669.68 C8.66 669.68 0 690.89 0 690.76 L0 657.77 C0 656.29 1.21
							 655.07 2.69 655.07 L15.31 655.07 C15.84 655.07 16.31 655.28 16.78 655.55 L24.17 660.46 L44.31 660.46
							 C45.78 660.46 46.99 661.67 46.99 663.15 L46.99 666.52 L13.36 666.52 Z" class="st18"/>
			</g>
			<g id="shape151-99" transform="translate(2.01393,0)">
				<title>Sheet.151</title>
				<path d="M50.35 669.89 C50.35 670.29 50.28 670.69 50.08 671.1 L40.95 690.76 L0 690.76 L9.06 668.67 C9.47 667.8 10.34
							 667.19 11.35 667.19 L47.93 667.19 C49.34 667.33 50.35 668.47 50.35 669.89 Z" class="st18"/>
			</g>
			<g id="shape149-101">
				<text x="-4.2" y="703.76" class="st7">Tenant2-Alias2</text>			</g>
		</g>
		<g id="group152-103" transform="translate(288.8,-237.002)">
			<title>Open Folder.152</title>
			<desc>Incoming</desc>
			<g id="shape153-104" transform="translate(0,-2.01905)">
				<title>Sheet.153</title>
				<path d="M13.36 666.52 C11.28 666.52 9.47 667.8 8.66 669.68 C8.66 669.68 0 690.89 0 690.76 L0 657.77 C0 656.29 1.21
							 655.07 2.69 655.07 L15.31 655.07 C15.84 655.07 16.31 655.28 16.78 655.55 L24.17 660.46 L44.31 660.46
							 C45.78 660.46 46.99 661.67 46.99 663.15 L46.99 666.52 L13.36 666.52 Z" class="st19"/>
			</g>
			<g id="shape154-106" transform="translate(2.01393,0)">
				<title>Sheet.154</title>
				<path d="M50.35 669.89 C50.35 670.29 50.28 670.69 50.08 671.1 L40.95 690.76 L0 690.76 L9.06 668.67 C9.47 667.8 10.34
							 667.19 11.35 667.19 L47.93 667.19 C49.34 667.33 50.35 668.47 50.35 669.89 Z" class="st19"/>
			</g>
			<g id="shape152-108">
				<text x="7.42" y="703.76" class="st7">Incoming</text>			</g>
		</g>
		<g id="group164-110" transform="translate(172.076,-528.403)">
			<title>Mail.164</title>
			<g id="shape165-111">
				<title>Sheet.165</title>
				<path d="M0 690.76 L37.7 690.76 L37.7 667.19 L31.41 661.6 L5.8 661.6 L0 667.19 L0 690.76 Z" class="st20"/>
			</g>
			<g id="shape166-113" transform="translate(5.80012,-10.8873)">
				<title>Sheet.166</title>
				<path d="M26.1 670.67 L19.61 663.94 L0 663.94 L0 683.97 L6.56 690.57 A9.36896 9.36896 0 0 1 9.71 689.86 L16.29 689.91
							 A8.58681 8.58681 0 0 1 19.5 690.76 L26.1 683.97 L26.1 670.67 Z" class="st20"/>
			</g>
			<g id="shape167-115" transform="translate(10.6516,-13.6602)">
				<title>Sheet.167</title>
				<path d="M14.57 666.95 L20.85 673.47 L14.57 673.47 L14.57 666.95 ZM0 673.88 L6.47 673.88 L6.47 673.14 L0 673.14 L0
							 673.88 ZM0 678.1 L6.47 678.1 L6.47 677.38 L0 677.38 L0 678.1 ZM0 682.32 L16.39 682.32 L16.39 681.6 L0
							 681.6 L0 682.32 ZM0 686.54 L16.39 686.54 L16.39 685.82 L0 685.82 L0 686.54 ZM0 690.76 L16.39 690.76
							 L16.39 690.04 L0 690.04 L0 690.76 Z" class="st9"/>
			</g>
			<g id="shape168-118">
				<title>Sheet.168</title>
				<path d="M12.34 679.69 L0 667.19" class="st10"/>
				<path d="M25.36 679.69 L37.7 667.19" class="st10"/>
				<path d="M37.7 690.76 L27.6 681.43 A9.28019 9.4252 -180 0 0 21.35 678.97 L15.89 678.97 A9.28019 9.4252 -180 0 0 9.49
							 681.57 L0 690.76" class="st10"/>
			</g>
		</g>
		<g id="shape169-123" transform="translate(94.5482,-510.545)">
			<title>Sheet.169</title>
			<desc>To: tenan2-alias2@app.company.com</desc>
			<rect x="0" y="679.417" width="192.756" height="11.3386" class="st13"/>
			<text x="19.34" y="688.69" class="st15">To: tenan2-alias2@app.company.com</text>		</g>
		<g id="group170-126" transform="translate(172.076,-454.687)">
			<title>Mail.170</title>
			<g id="shape171-127">
				<title>Sheet.171</title>
				<path d="M0 690.76 L37.7 690.76 L37.7 667.19 L31.41 661.6 L5.8 661.6 L0 667.19 L0 690.76 Z" class="st21"/>
			</g>
			<g id="shape172-129" transform="translate(5.80012,-10.8873)">
				<title>Sheet.172</title>
				<path d="M26.1 670.67 L19.61 663.94 L0 663.94 L0 683.97 L6.56 690.57 A9.36896 9.36896 0 0 1 9.71 689.86 L16.29 689.91
							 A8.58681 8.58681 0 0 1 19.5 690.76 L26.1 683.97 L26.1 670.67 Z" class="st21"/>
			</g>
			<g id="shape173-131" transform="translate(10.6516,-13.6602)">
				<title>Sheet.173</title>
				<path d="M14.57 666.95 L20.85 673.47 L14.57 673.47 L14.57 666.95 ZM0 673.88 L6.47 673.88 L6.47 673.14 L0 673.14 L0
							 673.88 ZM0 678.1 L6.47 678.1 L6.47 677.38 L0 677.38 L0 678.1 ZM0 682.32 L16.39 682.32 L16.39 681.6 L0
							 681.6 L0 682.32 ZM0 686.54 L16.39 686.54 L16.39 685.82 L0 685.82 L0 686.54 ZM0 690.76 L16.39 690.76
							 L16.39 690.04 L0 690.04 L0 690.76 Z" class="st9"/>
			</g>
			<g id="shape174-134">
				<title>Sheet.174</title>
				<path d="M12.34 679.69 L0 667.19" class="st10"/>
				<path d="M25.36 679.69 L37.7 667.19" class="st10"/>
				<path d="M37.7 690.76 L27.6 681.43 A9.28019 9.4252 -180 0 0 21.35 678.97 L15.89 678.97 A9.28019 9.4252 -180 0 0 9.49
							 681.57 L0 690.76" class="st10"/>
			</g>
		</g>
		<g id="shape175-139" transform="translate(94.5482,-436.829)">
			<title>Sheet.175</title>
			<desc>To: tenan3@app.company.com</desc>
			<rect x="0" y="679.417" width="192.756" height="11.3386" class="st13"/>
			<text x="32.44" y="688.69" class="st15">To: tenan3@app.company.com</text>		</g>
		<g id="group176-142" transform="translate(5.15661,-179.272)">
			<title>Mail.176</title>
			<g id="shape177-143">
				<title>Sheet.177</title>
				<path d="M0 690.76 L37.7 690.76 L37.7 667.19 L31.41 661.6 L5.8 661.6 L0 667.19 L0 690.76 Z" class="st8"/>
			</g>
			<g id="shape178-145" transform="translate(5.80012,-10.8873)">
				<title>Sheet.178</title>
				<path d="M26.1 670.67 L19.61 663.94 L0 663.94 L0 683.97 L6.56 690.57 A9.36896 9.36896 0 0 1 9.71 689.86 L16.29 689.91
							 A8.58681 8.58681 0 0 1 19.5 690.76 L26.1 683.97 L26.1 670.67 Z" class="st8"/>
			</g>
			<g id="shape179-147" transform="translate(10.6516,-13.6602)">
				<title>Sheet.179</title>
				<path d="M14.57 666.95 L20.85 673.47 L14.57 673.47 L14.57 666.95 ZM0 673.88 L6.47 673.88 L6.47 673.14 L0 673.14 L0
							 673.88 ZM0 678.1 L6.47 678.1 L6.47 677.38 L0 677.38 L0 678.1 ZM0 682.32 L16.39 682.32 L16.39 681.6 L0
							 681.6 L0 682.32 ZM0 686.54 L16.39 686.54 L16.39 685.82 L0 685.82 L0 686.54 ZM0 690.76 L16.39 690.76
							 L16.39 690.04 L0 690.04 L0 690.76 Z" class="st9"/>
			</g>
			<g id="shape180-150">
				<title>Sheet.180</title>
				<path d="M12.34 679.69 L0 667.19" class="st10"/>
				<path d="M25.36 679.69 L37.7 667.19" class="st10"/>
				<path d="M37.7 690.76 L27.6 681.43 A9.28019 9.4252 -180 0 0 21.35 678.97 L15.89 678.97 A9.28019 9.4252 -180 0 0 9.49
							 681.57 L0 690.76" class="st10"/>
			</g>
		</g>
		<g id="group181-155" transform="translate(126.923,-119.08)">
			<title>Mail.181</title>
			<g id="shape182-156">
				<title>Sheet.182</title>
				<path d="M0 690.76 L37.7 690.76 L37.7 667.19 L31.41 661.6 L5.8 661.6 L0 667.19 L0 690.76 Z" class="st20"/>
			</g>
			<g id="shape183-158" transform="translate(5.80012,-10.8873)">
				<title>Sheet.183</title>
				<path d="M26.1 670.67 L19.61 663.94 L0 663.94 L0 683.97 L6.56 690.57 A9.36896 9.36896 0 0 1 9.71 689.86 L16.29 689.91
							 A8.58681 8.58681 0 0 1 19.5 690.76 L26.1 683.97 L26.1 670.67 Z" class="st20"/>
			</g>
			<g id="shape184-160" transform="translate(10.6516,-13.6602)">
				<title>Sheet.184</title>
				<path d="M14.57 666.95 L20.85 673.47 L14.57 673.47 L14.57 666.95 ZM0 673.88 L6.47 673.88 L6.47 673.14 L0 673.14 L0
							 673.88 ZM0 678.1 L6.47 678.1 L6.47 677.38 L0 677.38 L0 678.1 ZM0 682.32 L16.39 682.32 L16.39 681.6 L0
							 681.6 L0 682.32 ZM0 686.54 L16.39 686.54 L16.39 685.82 L0 685.82 L0 686.54 ZM0 690.76 L16.39 690.76
							 L16.39 690.04 L0 690.04 L0 690.76 Z" class="st9"/>
			</g>
			<g id="shape185-163">
				<title>Sheet.185</title>
				<path d="M12.34 679.69 L0 667.19" class="st10"/>
				<path d="M25.36 679.69 L37.7 667.19" class="st10"/>
				<path d="M37.7 690.76 L27.6 681.43 A9.28019 9.4252 -180 0 0 21.35 678.97 L15.89 678.97 A9.28019 9.4252 -180 0 0 9.49
							 681.57 L0 690.76" class="st10"/>
			</g>
		</g>
		<g id="group186-168" transform="translate(244.784,-237.002)">
			<title>Mail.186</title>
			<g id="shape187-169">
				<title>Sheet.187</title>
				<path d="M0 690.76 L37.7 690.76 L37.7 667.19 L31.41 661.6 L5.8 661.6 L0 667.19 L0 690.76 Z" class="st21"/>
			</g>
			<g id="shape188-171" transform="translate(5.80012,-10.8873)">
				<title>Sheet.188</title>
				<path d="M26.1 670.67 L19.61 663.94 L0 663.94 L0 683.97 L6.56 690.57 A9.36896 9.36896 0 0 1 9.71 689.86 L16.29 689.91
							 A8.58681 8.58681 0 0 1 19.5 690.76 L26.1 683.97 L26.1 670.67 Z" class="st21"/>
			</g>
			<g id="shape189-173" transform="translate(10.6516,-13.6602)">
				<title>Sheet.189</title>
				<path d="M14.57 666.95 L20.85 673.47 L14.57 673.47 L14.57 666.95 ZM0 673.88 L6.47 673.88 L6.47 673.14 L0 673.14 L0
							 673.88 ZM0 678.1 L6.47 678.1 L6.47 677.38 L0 677.38 L0 678.1 ZM0 682.32 L16.39 682.32 L16.39 681.6 L0
							 681.6 L0 682.32 ZM0 686.54 L16.39 686.54 L16.39 685.82 L0 685.82 L0 686.54 ZM0 690.76 L16.39 690.76
							 L16.39 690.04 L0 690.04 L0 690.76 Z" class="st9"/>
			</g>
			<g id="shape190-176">
				<title>Sheet.190</title>
				<path d="M12.34 679.69 L0 667.19" class="st10"/>
				<path d="M25.36 679.69 L37.7 667.19" class="st10"/>
				<path d="M37.7 690.76 L27.6 681.43 A9.28019 9.4252 -180 0 0 21.35 678.97 L15.89 678.97 A9.28019 9.4252 -180 0 0 9.49
							 681.57 L0 690.76" class="st10"/>
			</g>
		</g>
		<g id="shape195-181" transform="translate(141.118,-660.617)">
			<title>Sheet.195</title>
			<desc>Intake</desc>
			<rect x="0" y="660.992" width="99.2126" height="29.7638" class="st13"/>
			<text x="34.35" y="679.47" class="st14">Intake</text>		</g>
		<g id="shape196-184" transform="translate(0.375,-378.412)">
			<title>Sheet.196</title>
			<desc>Exchange Online</desc>
			<rect x="0" y="670.756" width="152" height="20" class="st13"/>
			<text x="35.57" y="684.36" class="st14">Exchange Online</text>		</g>
	</g>
</svg>
